<svg width="267" height="267" viewBox="0 0 267 267" fill="none" xmlns="http://www.w3.org/2000/svg">
<path d="M126.649 230.755L126.407 234.528L122.455 234.274L121.594 247.686L125.217 247.919L124.975 251.691L117.011 251.18L118.114 233.995L114.582 233.768L114.824 229.996L126.649 230.755Z" fill="white"/>
<path d="M102.367 225.658C103.809 226.137 104.996 226.879 105.927 227.884C106.858 228.888 107.479 230.032 107.79 231.316C108.077 232.612 107.999 233.924 107.558 235.253L105.421 241.688C104.98 243.016 104.261 244.105 103.262 244.954C102.239 245.815 101.054 246.37 99.7067 246.618C98.3598 246.866 96.9651 246.751 95.5226 246.272C94.099 245.799 92.9312 245.064 92.0193 244.066C91.0884 243.061 90.4799 241.911 90.1938 240.615C89.8824 239.331 89.9472 238.025 90.3884 236.696L92.5248 230.262C92.966 228.933 93.6983 227.838 94.7219 226.977C95.7202 226.128 96.8927 225.579 98.2396 225.331C99.5674 225.077 100.943 225.186 102.367 225.658ZM101.176 229.246C100.549 229.038 99.9325 228.991 99.3255 229.106C98.7122 229.239 98.1718 229.502 97.7042 229.895C97.2177 230.281 96.8767 230.769 96.6813 231.357L94.3748 238.304C94.1731 238.912 94.1548 239.506 94.3199 240.088C94.4598 240.682 94.7387 241.207 95.1566 241.662C95.5683 242.136 96.0873 242.476 96.7137 242.684C97.3401 242.892 97.9694 242.933 98.6017 242.806C99.2277 242.697 99.784 242.45 100.271 242.064C100.732 241.69 101.063 241.199 101.265 240.592L103.571 233.645C103.767 233.056 103.795 232.465 103.655 231.871C103.496 231.27 103.201 230.73 102.771 230.25C102.334 229.788 101.802 229.454 101.176 229.246Z" fill="white"/>
<path d="M79.8704 214.818C81.1443 215.647 82.1041 216.666 82.7497 217.874C83.3954 219.081 83.7061 220.346 83.6817 221.666C83.6297 222.993 83.2218 224.242 82.4581 225.416L78.7594 231.098C77.9956 232.271 77.0233 233.142 75.8424 233.709C74.6338 234.283 73.3466 234.519 71.9809 234.418C70.6151 234.316 69.2953 233.851 68.0214 233.021C66.7643 232.203 65.8213 231.196 65.1924 229.999C64.5467 228.791 64.2499 227.524 64.3019 226.197C64.3262 224.877 64.7203 223.63 65.484 222.457L69.1828 216.774C69.9465 215.601 70.9327 214.728 72.1412 214.154C73.3221 213.586 74.5955 213.353 75.9612 213.455C77.3102 213.545 78.6133 214 79.8704 214.818ZM77.8083 217.986C77.2552 217.626 76.6705 217.425 76.0543 217.381C75.4271 217.355 74.8376 217.472 74.2857 217.734C73.7171 217.984 73.2637 218.369 72.9255 218.889L68.9321 225.023C68.583 225.56 68.4145 226.13 68.4267 226.735C68.4112 227.345 68.5479 227.923 68.8368 228.469C69.1148 229.032 69.5304 229.493 70.0835 229.854C70.6367 230.214 71.2352 230.412 71.8791 230.45C72.5121 230.504 73.1129 230.406 73.6815 230.155C74.2225 229.911 74.6675 229.52 75.0167 228.984L79.01 222.849C79.3482 222.329 79.5251 221.764 79.5406 221.154C79.5393 220.533 79.3913 219.935 79.0965 219.362C78.7908 218.805 78.3614 218.346 77.8083 217.986Z" fill="white"/>
<path d="M60.8596 198.626C61.8815 199.751 62.5515 200.98 62.8697 202.312C63.1879 203.644 63.1677 204.946 62.8092 206.217C62.4225 207.487 61.7109 208.592 60.6745 209.533L55.6554 214.092C54.619 215.033 53.4577 215.628 52.1714 215.878C50.8569 216.126 49.552 216.028 48.2566 215.583C46.9613 215.139 45.8026 214.354 44.7807 213.229C43.7723 212.118 43.1157 210.904 42.811 209.587C42.4928 208.255 42.5271 206.954 42.9138 205.684C43.2723 204.413 43.9698 203.307 45.0062 202.366L50.0253 197.807C51.0616 196.866 52.2371 196.272 53.5516 196.023C54.8379 195.774 56.1287 195.871 57.4241 196.316C58.706 196.746 59.8511 197.516 60.8596 198.626ZM58.0613 201.167C57.6176 200.679 57.1032 200.336 56.5181 200.137C55.9181 199.953 55.3181 199.917 54.718 200.03C54.1045 200.128 53.5683 200.385 53.1093 200.802L47.6905 205.723C47.2167 206.153 46.909 206.662 46.7675 207.25C46.5977 207.837 46.5832 208.431 46.7242 209.032C46.8503 209.647 47.1353 210.199 47.579 210.687C48.0227 211.176 48.5513 211.52 49.1646 211.719C49.7632 211.932 50.3693 211.99 50.9828 211.892C51.5681 211.792 52.0976 211.528 52.5714 211.097L57.9902 206.176C58.4492 205.759 58.7636 205.258 58.9334 204.671C59.0897 204.07 59.0981 203.454 58.9585 202.825C58.8041 202.208 58.5051 201.656 58.0613 201.167Z" fill="white"/>
<path d="M48.6777 182.945L45.3264 184.694L43.4947 181.183L31.5788 187.399L33.2579 190.618L29.9065 192.366L26.2155 185.291L41.4827 177.326L39.8453 174.188L43.1967 172.439L48.6777 182.945Z" fill="white"/>
<path d="M37.9588 154.704C38.2971 156.186 38.278 157.585 37.9016 158.902C37.5251 160.219 36.8688 161.343 35.9327 162.275C34.9726 163.191 33.8101 163.806 32.4452 164.117L25.8352 165.626C24.4703 165.937 23.1662 165.886 21.923 165.472C20.6558 165.044 19.567 164.318 18.6565 163.295C17.746 162.272 17.1216 161.019 16.7834 159.537C16.4496 158.075 16.4732 156.695 16.8541 155.398C17.2305 154.081 17.8987 152.964 18.8589 152.048C19.795 151.116 20.9455 150.494 22.3104 150.183L28.9204 148.674C30.2853 148.363 31.6014 148.421 32.8686 148.85C34.1118 149.264 35.1887 149.982 36.0991 151.005C37.0052 152.009 37.6251 153.242 37.9588 154.704ZM34.2736 155.545C34.1268 154.902 33.847 154.35 33.4344 153.891C33.0022 153.435 32.4971 153.11 31.9189 152.913C31.3363 152.697 30.7427 152.659 30.1383 152.797L23.0018 154.425C22.3779 154.568 21.86 154.86 21.4482 155.303C21.0124 155.731 20.7084 156.241 20.5361 156.834C20.3443 157.432 20.3218 158.053 20.4686 158.696C20.6155 159.34 20.9072 159.899 21.3438 160.373C21.7609 160.853 22.2608 161.2 22.8434 161.416C23.4021 161.617 23.9934 161.646 24.6173 161.503L31.7538 159.875C32.3582 159.737 32.8784 159.454 33.3141 159.026C33.7454 158.579 34.0548 158.047 34.2421 157.43C34.41 156.817 34.4205 156.189 34.2736 155.545Z" fill="white"/>
<path d="M35.0395 135.063L31.2614 134.942L31.3884 130.984L17.9553 130.553L17.8389 134.182L14.0609 134.06L14.3166 126.084L31.5278 126.636L31.6412 123.098L35.4193 123.219L35.0395 135.063Z" fill="white"/>
<path d="M37.725 110.108L34.1013 109.033L35.228 105.236L22.3435 101.412L21.3107 104.892L17.6869 103.817L19.9574 96.1665L36.4657 101.066L37.4729 97.6724L41.0967 98.7479L37.725 110.108Z" fill="white"/>
<path d="M46.6528 86.6503L43.4204 84.6908L45.4732 81.3044L33.9801 74.3372L32.0983 77.4414L28.8659 75.4818L33.0026 68.6578L47.7282 77.5845L49.5633 74.5573L52.7957 76.5168L46.6528 86.6503Z" fill="white"/>
<path d="M65.2464 62.8441C64.1546 63.9015 62.948 64.6106 61.6269 64.9713C60.3057 65.332 59.0041 65.3536 57.7221 65.036C56.4405 64.6902 55.3128 64.0144 54.3388 63.0087L49.6221 58.1383C48.6481 57.1326 48.0158 55.9909 47.7251 54.7133C47.4349 53.4074 47.4912 52.1 47.8941 50.7911C48.2969 49.4822 49.0443 48.299 50.1362 47.2415C51.2137 46.198 52.4059 45.5029 53.7127 45.1561C55.0339 44.7953 56.3352 44.7879 57.6168 45.1338C58.8988 45.4513 60.0268 46.113 61.0007 47.1187L65.7175 51.9891C66.6914 52.9948 67.3235 54.1506 67.6138 55.4565C67.9044 56.7341 67.8483 58.0273 67.4455 59.3363C67.057 60.6313 66.324 61.8006 65.2464 62.8441ZM62.6168 60.1287C63.0909 59.6696 63.4175 59.1444 63.5967 58.5532C63.762 57.9477 63.7787 57.3468 63.6468 56.7507C63.5293 56.1406 63.2549 55.6129 62.8236 55.1675L57.7312 49.9092C57.286 49.4495 56.7673 49.1583 56.1752 49.0356C55.5836 48.8847 54.9895 48.8893 54.3929 49.0495C53.7823 49.1953 53.24 49.4977 52.7659 49.9569C52.2918 50.416 51.9649 50.9553 51.7852 51.5748C51.5917 52.1799 51.5536 52.7875 51.6712 53.3975C51.7891 53.9793 52.0707 54.5001 52.516 54.9598L57.6084 60.2182C58.0397 60.6635 58.5512 60.9617 59.1428 61.1126C59.7488 61.2496 60.3642 61.2383 60.9891 61.0786C61.6001 60.9045 62.1427 60.5879 62.6168 60.1287Z" fill="white"/>
<path d="M80.5287 50.166L78.6738 46.8724L82.1243 44.9292L75.529 33.2186L72.3661 35L70.5112 31.7064L77.4643 27.7904L85.9145 42.7945L88.999 41.0574L90.8539 44.351L80.5287 50.166Z" fill="white"/>
<path d="M108.412 38.5474C106.942 38.933 105.542 38.9587 104.214 38.6247C102.886 38.2907 101.741 37.6707 100.78 36.7649C99.8333 35.8347 99.1822 34.6925 98.8271 33.3383L97.1073 26.78C96.7522 25.4258 96.7615 24.1208 97.1352 22.8649C97.5231 21.5846 98.2138 20.4731 99.2071 19.5303C100.2 18.5875 101.432 17.9233 102.903 17.5378C104.353 17.1573 105.733 17.1366 107.042 17.4757C108.37 17.8097 109.508 18.4419 110.455 19.3721C111.416 20.2779 112.074 21.4079 112.429 22.7621L114.149 29.3204C114.504 30.6746 114.488 31.9918 114.1 33.2721C113.726 34.528 113.043 35.6273 112.049 36.5701C111.075 37.5078 109.863 38.1669 108.412 38.5474ZM107.453 34.891C108.092 34.7236 108.634 34.4263 109.08 33.9992C109.521 33.5527 109.831 33.0373 110.008 32.4532C110.205 31.8639 110.225 31.2695 110.068 30.6697L108.211 23.5891C108.049 22.9701 107.74 22.4618 107.284 22.0644C106.843 21.6426 106.323 21.3551 105.724 21.2019C105.121 21.0293 104.5 21.0267 103.861 21.1941C103.223 21.3615 102.673 21.671 102.213 22.1226C101.747 22.5549 101.416 23.0656 101.219 23.6548C101.036 24.2197 101.026 24.8116 101.189 25.4307L103.045 32.5113C103.203 33.111 103.502 33.6218 103.943 34.0436C104.404 34.4603 104.946 34.7525 105.569 34.9199C106.187 35.0681 106.815 35.0584 107.453 34.891Z" fill="white"/>
<path d="M127.949 35V31.22H131.909V17.78H128.279V14L136.259 14V31.22H139.799V35H127.949Z" fill="white"/>
<path d="M157.946 38.5593C156.475 38.1737 155.243 37.5095 154.25 36.5667C153.257 35.6239 152.564 34.5221 152.171 33.2611C151.802 31.9859 151.795 30.6712 152.15 29.317L153.87 22.7588C154.225 21.4045 154.874 20.272 155.816 19.3611C156.782 18.436 157.929 17.8064 159.257 17.4723C160.585 17.1383 161.985 17.1641 163.455 17.5496C164.906 17.9301 166.118 18.5892 167.092 19.5269C168.086 20.4697 168.767 21.5787 169.135 22.8539C169.528 24.1149 169.547 25.4224 169.192 26.7767L167.472 33.3349C167.117 34.6891 166.456 35.8288 165.49 36.754C164.548 37.6649 163.413 38.2873 162.085 38.6213C160.776 38.9604 159.396 38.9398 157.946 38.5593ZM158.904 34.9029C159.543 35.0703 160.161 35.0774 160.76 34.9242C161.363 34.7516 161.886 34.4544 162.327 34.0326C162.788 33.6159 163.097 33.1076 163.254 32.5079L165.111 25.4273C165.273 24.8082 165.253 24.2138 165.051 23.6439C164.874 23.0597 164.562 22.554 164.115 22.1269C163.674 21.6804 163.134 21.3734 162.496 21.206C161.858 21.0386 161.227 21.0386 160.604 21.2061C159.986 21.3543 159.447 21.6367 158.986 22.0535C158.55 22.4559 158.251 22.9667 158.088 23.5858L156.232 30.6664C156.074 31.2661 156.084 31.858 156.262 32.4422C156.459 33.0314 156.788 33.5518 157.248 34.0034C157.714 34.4357 158.266 34.7355 158.904 34.9029Z" fill="white"/>
<path d="M176.709 45.0556L178.564 41.762L182.015 43.7052L188.61 31.9947L185.447 30.2134L187.302 26.9198L194.255 30.8357L185.805 45.8398L188.889 47.577L187.034 50.8706L176.709 45.0556Z" fill="white"/>
<path d="M197.592 58.9793L200.222 56.2639L203.067 59.0188L212.417 49.3642L209.809 46.8389L212.439 44.1235L218.171 49.6751L206.192 62.045L208.735 64.5078L206.105 67.2231L197.592 58.9793Z" fill="white"/>
<path d="M216.664 82.4042C215.876 81.1043 215.454 79.7703 215.396 78.402C215.338 77.0336 215.607 75.7599 216.202 74.5807C216.824 73.4082 217.734 72.4591 218.931 71.7334L224.729 68.2187C225.926 67.4929 227.18 67.1305 228.49 67.1314C229.828 67.139 231.09 67.4849 232.276 68.1689C233.463 68.8529 234.45 69.8448 235.238 71.1447C236.016 72.4274 236.428 73.7443 236.475 75.0955C236.533 76.4639 236.251 77.7342 235.628 78.9067C235.033 80.0859 234.137 81.0384 232.94 81.7641L227.142 85.2788C225.945 86.0046 224.678 86.3636 223.34 86.356C222.03 86.3551 220.781 86.0126 219.595 85.3286C218.419 84.6617 217.442 83.6869 216.664 82.4042ZM219.897 80.4446C220.239 81.009 220.678 81.4443 221.215 81.7506C221.768 82.0465 222.35 82.1965 222.961 82.2006C223.582 82.2218 224.157 82.0716 224.688 81.7502L230.947 77.9556C231.494 77.6238 231.894 77.183 232.145 76.633C232.424 76.0898 232.552 75.5096 232.528 74.8923C232.522 74.2646 232.348 73.6686 232.006 73.1042C231.663 72.5398 231.21 72.1011 230.646 71.7881C230.1 71.4647 229.516 71.2925 228.895 71.2713C228.301 71.2568 227.731 71.4155 227.184 71.7473L220.924 75.5419C220.394 75.8633 219.989 76.2956 219.711 76.8388C219.442 77.3991 219.316 78.0017 219.333 78.6464C219.367 79.2808 219.555 79.8802 219.897 80.4446Z" fill="white"/>
<path d="M225.624 100.124L229.248 99.049L230.374 102.845L243.259 99.0212L242.226 95.5413L245.85 94.4658L248.12 102.116L231.612 107.015L232.619 110.409L228.996 111.485L225.624 100.124Z" fill="white"/>
<path d="M230.747 129.894C230.698 128.375 230.984 127.005 231.605 125.784C232.226 124.564 233.086 123.586 234.183 122.85C235.3 122.134 236.559 121.753 237.958 121.709L244.734 121.491C246.134 121.446 247.404 121.746 248.545 122.39C249.707 123.053 250.637 123.973 251.335 125.152C252.033 126.33 252.407 127.679 252.455 129.198C252.503 130.697 252.217 132.047 251.595 133.247C250.974 134.468 250.104 135.436 248.986 136.153C247.89 136.888 246.641 137.278 245.242 137.323L238.466 137.54C237.066 137.585 235.786 137.276 234.624 136.613C233.483 135.969 232.563 135.058 231.865 133.88C231.167 132.722 230.795 131.393 230.747 129.894ZM234.525 129.773C234.546 130.432 234.715 131.027 235.032 131.557C235.369 132.087 235.803 132.503 236.333 132.806C236.863 133.13 237.439 133.281 238.058 133.261L245.374 133.027C246.014 133.006 246.578 132.818 247.067 132.462C247.577 132.126 247.973 131.683 248.255 131.133C248.558 130.583 248.698 129.979 248.677 129.319C248.656 128.659 248.477 128.055 248.139 127.505C247.821 126.955 247.397 126.519 246.866 126.195C246.356 125.892 245.781 125.75 245.142 125.77L237.826 126.005C237.206 126.025 236.641 126.203 236.132 126.54C235.623 126.896 235.218 127.359 234.916 127.929C234.634 128.499 234.503 129.113 234.525 129.773Z" fill="white"/>
<path d="M229.857 149.731L233.543 150.572L232.661 154.432L245.765 157.423L246.572 153.884L250.258 154.725L248.482 162.505L231.694 158.673L230.906 162.125L227.221 161.283L229.857 149.731Z" fill="white"/>
<path d="M222.451 173.712L225.803 175.461L223.971 178.972L235.887 185.188L237.566 181.97L240.917 183.718L237.226 190.793L221.959 182.828L220.321 185.967L216.97 184.218L222.451 173.712Z" fill="white"/>
<path d="M209.204 195.031L212.002 197.572L209.34 200.504L219.289 209.539L221.73 206.852L224.528 209.393L219.163 215.301L206.415 203.724L204.035 206.344L201.237 203.803L209.204 195.031Z" fill="white"/>
<path d="M186.402 214.844C187.676 214.015 188.996 213.549 190.362 213.448C191.728 213.346 193.009 213.574 194.207 214.131C195.399 214.715 196.377 215.594 197.14 216.767L200.839 222.449C201.603 223.623 202.005 224.864 202.046 226.174C202.082 227.511 201.776 228.784 201.131 229.992C200.485 231.199 199.525 232.218 198.251 233.047C196.994 233.865 195.691 234.32 194.342 234.41C192.976 234.512 191.698 234.27 190.506 233.686C189.308 233.129 188.327 232.264 187.564 231.091L183.865 225.409C183.101 224.235 182.702 222.98 182.667 221.643C182.625 220.333 182.928 219.074 183.573 217.866C184.202 216.67 185.145 215.662 186.402 214.844ZM188.465 218.012C187.911 218.372 187.49 218.825 187.201 219.371C186.923 219.934 186.792 220.52 186.808 221.131C186.806 221.752 186.975 222.322 187.313 222.842L191.306 228.977C191.656 229.513 192.109 229.898 192.667 230.132C193.219 230.393 193.803 230.502 194.419 230.459C195.046 230.432 195.636 230.239 196.189 229.879C196.742 229.519 197.166 229.052 197.461 228.478C197.767 227.921 197.92 227.332 197.922 226.711C197.917 226.117 197.74 225.552 197.391 225.016L193.398 218.881C193.059 218.362 192.614 217.971 192.062 217.71C191.494 217.46 190.888 217.353 190.244 217.39C189.611 217.445 189.018 217.652 188.465 218.012Z" fill="white"/>
<path d="M163.901 225.673C165.343 225.194 166.738 225.079 168.085 225.327C169.432 225.575 170.614 226.121 171.631 226.963C172.636 227.831 173.359 228.929 173.8 230.257L175.936 236.692C176.377 238.021 176.452 239.324 176.159 240.601C175.854 241.903 175.236 243.057 174.305 244.061C173.374 245.066 172.188 245.808 170.745 246.287C169.321 246.759 167.946 246.868 166.618 246.614C165.271 246.366 164.095 245.808 163.091 244.94C162.073 244.098 161.344 243.012 160.903 241.683L158.767 235.249C158.326 233.92 158.258 232.604 158.563 231.302C158.855 230.025 159.467 228.884 160.398 227.879C161.31 226.881 162.477 226.146 163.901 225.673ZM165.092 229.261C164.466 229.468 163.943 229.8 163.525 230.255C163.114 230.729 162.838 231.263 162.698 231.857C162.539 232.458 162.558 233.052 162.753 233.641L165.06 240.588C165.261 241.195 165.602 241.683 166.083 242.05C166.55 242.443 167.087 242.696 167.694 242.811C168.308 242.944 168.928 242.907 169.554 242.699C170.18 242.491 170.709 242.147 171.139 241.667C171.576 241.206 171.874 240.675 172.033 240.074C172.179 239.499 172.151 238.907 171.95 238.3L169.643 231.353C169.448 230.765 169.116 230.274 168.649 229.881C168.162 229.495 167.603 229.238 166.971 229.111C166.345 229.003 165.718 229.053 165.092 229.261Z" fill="white"/>
<path d="M142.76 230.192C144.277 230.095 145.655 230.337 146.895 230.919C148.135 231.5 149.14 232.328 149.91 233.401C150.662 234.495 151.082 235.74 151.172 237.137L151.606 243.903C151.696 245.301 151.438 246.58 150.831 247.741C150.205 248.924 149.315 249.883 148.16 250.618C147.004 251.354 145.668 251.77 144.151 251.868C142.654 251.964 141.296 251.72 140.076 251.137C138.836 250.555 137.841 249.717 137.089 248.623C136.319 247.55 135.889 246.315 135.799 244.918L135.365 238.152C135.275 236.755 135.543 235.465 136.168 234.283C136.775 233.122 137.656 232.173 138.811 231.438C139.947 230.703 141.263 230.288 142.76 230.192ZM143.002 233.964C142.343 234.007 141.754 234.195 141.234 234.529C140.716 234.883 140.314 235.329 140.028 235.869C139.722 236.41 139.589 236.989 139.628 237.608L140.097 244.913C140.138 245.552 140.345 246.11 140.716 246.587C141.069 247.085 141.524 247.467 142.082 247.732C142.641 248.016 143.25 248.138 143.909 248.095C144.568 248.053 145.166 247.854 145.705 247.499C146.244 247.164 146.667 246.726 146.973 246.185C147.26 245.666 147.383 245.086 147.342 244.448L146.873 237.143C146.834 236.524 146.638 235.966 146.285 235.467C145.912 234.97 145.436 234.58 144.857 234.296C144.279 234.033 143.661 233.922 143.002 233.964Z" fill="white"/>
</svg>
