<svg width="259" height="200" viewBox="0 0 259 200" fill="none" xmlns="http://www.w3.org/2000/svg">
<path d="M222.059 12.7934C221.912 12.8685 221.772 12.9569 221.641 13.053L221.638 13.0485L221.499 13.1617C221.456 13.1971 221.412 13.2303 221.371 13.268L190.243 39.0328C188.798 39.9199 187.925 41.3837 187.733 42.9482L154.997 69.854C153.046 71.0518 152.438 73.6033 153.635 75.5538C154.834 77.5066 157.383 78.1174 159.334 76.9195C159.655 76.7224 159.934 76.4866 160.181 76.2278L193.509 48.9215C194.312 48.853 195.113 48.6072 195.844 48.1582C196.259 47.9035 196.62 47.6018 196.937 47.2628L227.415 22.2198L227.415 22.2103C228.937 21.0028 229.24 18.3438 228.033 15.9076C226.695 13.2171 224.023 11.8213 222.059 12.7934Z" fill="black"/>
<path d="M152.318 59.3621C152.305 59.3456 152.292 59.3255 152.28 59.3112C152.264 59.2997 152.256 59.2922 152.242 59.2793C152.125 59.1237 151.985 58.9854 151.826 58.8559C149.815 56.2955 144.322 54.4442 123.831 62.7416C109.158 68.6816 90.7358 78.3027 71.9615 89.8266C53.185 101.352 36.2725 113.423 24.3303 123.816C20.3318 127.297 17.2433 130.274 14.879 132.825L15.5924 133.312L15.6368 133.35C15.9262 133.596 16.0915 133.955 16.1006 134.355C16.1128 134.886 15.8565 135.449 15.4132 135.862C15.2492 136.015 15.0764 136.149 14.898 136.258C14.026 136.793 13.4075 136.506 13.1498 136.326L12.3252 135.763C11.0522 137.331 10.0996 138.706 9.4029 139.917L10.761 140.844L10.8031 140.882C11.0903 141.13 11.2543 141.487 11.2647 141.89C11.2734 142.419 11.0179 142.978 10.5769 143.39C10.4128 143.543 10.2401 143.677 10.0616 143.786C9.18961 144.322 8.56982 144.032 8.31432 143.851L7.89704 143.566C7.62106 144.873 7.74554 145.881 8.05247 146.691C8.06629 146.769 8.06536 146.852 8.08364 146.927C8.14617 147.199 8.33893 147.563 8.48413 147.8C8.45724 147.761 8.4259 147.725 8.40124 147.684C8.48617 147.823 8.57556 147.958 8.66135 148.093C8.78327 148.292 8.92847 148.528 8.98088 148.604C8.98635 148.613 8.99493 148.617 9.00041 148.626C26.9441 176.273 72.757 179.28 112.052 155.16C143.226 136.025 161.027 105.512 158.802 79.4763C156.179 80.1801 153.286 79.1232 151.791 76.6884C150.001 73.7716 150.872 69.9584 153.728 68.1074L155.803 66.4005C154.911 64.1214 153.833 61.9008 152.553 59.7612C152.482 59.5993 152.403 59.4663 152.323 59.3651C152.32 59.3607 152.317 59.3562 152.313 59.3495C152.313 59.3495 152.317 59.3562 152.318 59.3621ZM133.341 79.6749C121.583 89.9091 104.888 101.819 86.3188 113.217C67.7497 124.615 49.5702 134.111 35.1245 139.961C17.8702 146.948 12.7931 145.855 12.3794 145.181C11.9643 144.505 13.2894 139.485 27.331 127.259C39.0863 117.027 55.7836 105.115 74.3527 93.7173C92.9196 82.3207 111.099 72.8241 125.547 66.973C142.806 59.9834 147.881 61.0778 148.296 61.754C148.707 62.4293 147.386 67.4498 133.341 79.6749Z" fill="black"/>
<path d="M17.5886 130.99C18.0065 131.368 18.469 134.262 16.6142 136.315C14.7594 138.368 11.2897 138.803 10.8718 138.425C10.4538 138.048 12.0713 136.042 13.721 134.063C15.421 132.023 17.1484 130.891 17.5886 130.99Z" fill="black"/>
<path d="M12.3904 140.737C12.8838 140.897 12.0159 140.765 11.1766 143.345C10.3373 145.924 9.09388 144.611 8.60053 144.451C7.6794 144.151 7.48307 144.46 8.64206 141.517C9.80105 138.573 9.98413 139.375 12.3904 140.737Z" fill="black"/>
</svg>
